# xmcd
#
# Track frame offsets:
#	150
#	22957
#	40957
#	55517
#	75177
#	93185
#	104542
#	126072
#	140297
#	157027
#	168375
#	186997
#	212455
#	231280
#	240538
#	266513
#
# Disc length: 3844 seconds
#
# Revision: 1
# Processed by: cddbd v1.5.2PL0 Copyright (c) Steve Scherf et al.
# Submitted via: EasyCDDAExtractor 2011.3.0.0
#
DISCID=c60f0210
DTITLE=SILK ROAD Music - the perfect tunes
DYEAR=2009
DGENRE=Country
TTITLE0=David Roth/Blowing in the wind
TTITLE1=Louis Capart&Duo Balance/Floraison
TTITLE2=Le Quattro Stagini/Vivaldi;La primavera-Allego
TTITLE3=R Rayford&M Jackson/Drums,Drums,Drums
TTITLE4=P Alderton/Fever
TTITLE5=Mara&David/Complete with Myself
TTITLE6=Salvatore Accardo/Debussy:Clair de Lune
TTITLE7=Nah Young Sun/I've told every little star
TTITLE8=Ulli Bogershausen/A distant land
TTITLE9=Beggars/Californis Dreaming
TTITLE10=Bluse Company/My funny valentine
TTITLE11=Sizhukong/Dunhuang
TTITLE12=M Arnold&London PHILHARMONIC ORCHESTRA/Scottish Dance OP
TTITLE13=D Kouzov/Rostropovich:Humoresque OP
TTITLE14=Terez Montcalm/Sorry seems to be the hardest word
TTITLE15=Rachel Barton Pine/Taylor-Deep River
EXTD=
EXTT0=
EXTT1=
EXTT2=
EXTT3=
EXTT4=
EXTT5=
EXTT6=
EXTT7=
EXTT8=
EXTT9=
EXTT10=
EXTT11=
EXTT12=
EXTT13=
EXTT14=
EXTT15=
PLAYORDER=
